<?xml version="1.0" encoding="UTF-8"?>
<svg width="41px" height="66px" viewBox="0 0 41 66" version="1.1" xmlns="http://www.w3.org/2000/svg" xmlns:xlink="http://www.w3.org/1999/xlink">
    <title>Derip</title>
    <g id="Page-1" stroke="none" stroke-width="1" fill="none" fill-rule="evenodd">
        <g id="Group" transform="translate(-0.129912, 0.062007)" stroke="#FFFFFF">
            <path d="M30.5382544,4.00023736 C31.6069907,4.00880322 32.553253,4.25316209 33.3591635,4.7885902 C34.2411226,5.37454314 34.9416309,6.27557841 35.5258217,7.43058195 C37.0711244,10.4857997 37.7497313,15.0756901 37.7497313,21.1419055 C37.7497313,27.2018886 37.074181,31.7759267 35.5302864,34.803612 C34.9522731,35.9371365 34.2602989,36.8188902 33.387262,37.3849208 C32.5869303,37.9038132 31.6470454,38.1287718 30.5863425,38.1202704 C24.564623,38.0720066 15.8623037,32.0236251 4.30472572,20.8314854 C15.8380237,9.85370989 24.5264324,3.95205297 30.5382544,4.00023736 Z" id="Oval" stroke-width="6" transform="translate(20.374866, 21.060253) rotate(-90.000000) translate(-20.374866, -21.060253) "></path>
            <path d="M20.6563645,4.93799279 C22.8162157,4.93799279 25.0350363,5.38469213 26.6082622,6.43166712 C27.4683723,7.00406665 28.129912,7.7923788 28.129912,8.90809326 C28.129912,14.1266984 26.7670464,20.5051502 24.7711722,25.4002207 C23.8949804,27.5491642 22.9102092,29.4062212 21.8355313,30.6751703 C21.4365843,31.1462356 21.0909193,31.7424227 20.5964437,31.7424227 C20.2948921,31.7424227 20.0653889,31.4771725 19.8413845,31.1739688 L19.6733724,30.9430012 C19.6170188,30.8660076 19.559969,30.7901934 19.5011833,30.7191101 C18.4456677,29.4427891 17.4771886,27.5745578 16.6094784,25.4328063 C14.55,20.3494372 13.129912,13.7497437 13.129912,8.90809326 C13.129912,7.74508006 13.7178033,6.92116586 14.5776217,6.35183629 C16.1459202,5.31338596 18.3939176,4.93799279 20.6563645,4.93799279 Z" id="Oval" stroke-width="6"></path>
            <path d="M20.129912,43.9379928 C21.2999284,43.9379928 22.3591795,44.4122356 23.1259264,45.1789826 C23.8926734,45.9457295 24.3669162,47.0049806 24.3669162,48.174997 C24.3669162,48.6830644 24.2755371,49.1869901 24.0971427,49.6627085 L24.0971427,49.6627085 L20.129912,60.2419903 L16.1626813,49.6627085 C15.7518612,48.567188 15.8239807,47.4088626 16.2726854,46.4217122 C16.7213901,45.4345618 17.54668,44.6185865 18.6422005,44.2077663 C19.1179189,44.0293719 19.6218446,43.9379928 20.129912,43.9379928 Z" id="Rectangle" stroke-width="4" transform="translate(20.129912, 53.937993) rotate(180.000000) translate(-20.129912, -53.937993) "></path>
        </g>
    </g>
</svg>