<?xml version="1.0" encoding="UTF-8"?>
<svg width="48px" height="61px" viewBox="0 0 48 61" version="1.1" xmlns="http://www.w3.org/2000/svg" xmlns:xlink="http://www.w3.org/1999/xlink">
    <title>iconmonstr-twitter-1</title>
    <defs>
        <filter id="filter-1">
            <feColorMatrix in="SourceGraphic" type="matrix" values="0 0 0 0 1.000000 0 0 0 0 1.000000 0 0 0 0 1.000000 0 0 0 1.000000 0"></feColorMatrix>
        </filter>
    </defs>
    <g id="Page-1" stroke="none" stroke-width="1" fill="none" fill-rule="evenodd">
        <g filter="url(#filter-1)" id="iconmonstr-twitter-1">
            <g transform="translate(0.000000, 6.000000)">
                <path d="M48,20.6170529 C46.234,21.4008921 44.336,21.9287838 42.344,22.166735 C44.378,20.9489848 45.94,19.0193806 46.674,16.7198523 C44.772,17.847621 42.664,18.6674528 40.42,19.1093622 C38.626,17.1957547 36.064,16 33.232,16 C26.874,16 22.202,21.9307834 23.638,28.0875205 C15.456,27.6776046 8.2,23.7584085 3.342,17.8016304 C0.762,22.2267227 2.004,28.0155353 6.388,30.946934 C4.776,30.8949446 3.256,30.4530353 1.93,29.7151866 C1.822,34.276251 5.092,38.5433757 9.828,39.4931809 C8.442,39.8691038 6.924,39.9570857 5.38,39.6611464 C6.632,43.5723441 10.268,46.4177605 14.58,46.4977441 C10.44,49.7430783 5.224,51.192781 0,50.5769073 C4.358,53.3703343 9.536,55 15.096,55 C33.38,55 43.71,39.5611669 43.086,25.7140074 C45.01,24.3242925 46.68,22.5906481 48,20.6170529 Z" id="Path" fill="#000000" fill-rule="nonzero"></path>
                <path d="M17.2381526,-5.32907052e-15 C18.408169,-5.32907052e-15 19.4674201,0.4742428 20.234167,1.2409898 C21.000914,2.0077367 21.4751568,3.0669878 21.4751568,4.2370042 C21.4751568,4.7450716 21.3837777,5.2489973 21.2053833,5.7247157 L21.2053833,5.7247157 L17.2381526,16.3039975 L13.2709219,5.7247157 C12.8601018,4.6291952 12.9322213,3.4708698 13.380926,2.4837194 C13.8296307,1.496569 14.6549206,0.6805937 15.7504411,0.2697735 C16.2261595,0.0913791 16.7300852,-5.32907052e-15 17.2381526,-5.32907052e-15 Z" id="Rectangle-Copy" stroke="#FFFFFF" stroke-width="4" transform="translate(17.237578, 8.151999) rotate(180.000000) translate(-17.237578, -8.151999) "></path>
            </g>
        </g>
    </g>
</svg>